<svg width="64" height="52" viewBox="0 0 64 52" fill="none" xmlns="http://www.w3.org/2000/svg">
<path d="M31.7514 32.0735C36.1659 32.0735 39.7445 29.2015 39.7445 25.6588C39.7445 22.116 36.1659 19.2441 31.7514 19.2441C27.337 19.2441 23.7583 22.116 23.7583 25.6588C23.7583 29.2015 27.337 32.0735 31.7514 32.0735Z" stroke="#1E1E1E" stroke-width="4" stroke-linecap="round" stroke-linejoin="round"/>
<path d="M51.4677 32.0735C51.1131 32.7184 51.0073 33.4338 51.164 34.1275C51.3207 34.8211 51.7328 35.4611 52.347 35.9651L52.5069 36.0934C53.0023 36.4905 53.3953 36.9622 53.6635 37.4813C53.9317 38.0005 54.0697 38.557 54.0697 39.119C54.0697 39.681 53.9317 40.2375 53.6635 40.7566C53.3953 41.2758 53.0023 41.7474 52.5069 42.1446C52.012 42.5422 51.4243 42.8576 50.7774 43.0728C50.1305 43.288 49.4371 43.3988 48.7368 43.3988C48.0365 43.3988 47.3431 43.288 46.6962 43.0728C46.0493 42.8576 45.4616 42.5422 44.9667 42.1446L44.8068 42.0163C44.1789 41.5233 43.3814 41.1927 42.517 41.0669C41.6527 40.9411 40.7613 41.026 39.9577 41.3107C39.1697 41.5817 38.4976 42.0318 38.0242 42.6054C37.5508 43.1791 37.2967 43.8513 37.2933 44.5394V44.9029C37.2933 46.0371 36.7319 47.1248 35.7326 47.9268C34.7332 48.7288 33.3779 49.1794 31.9646 49.1794C30.5513 49.1794 29.1959 48.7288 28.1966 47.9268C27.1973 47.1248 26.6359 46.0371 26.6359 44.9029V44.7105C26.6152 44.0027 26.3298 43.3163 25.8166 42.7405C25.3034 42.1647 24.5863 41.7261 23.7583 41.4817C22.9547 41.1971 22.0633 41.1122 21.199 41.238C20.3347 41.3637 19.5371 41.6944 18.9092 42.1873L18.7493 42.3156C18.2544 42.7133 17.6667 43.0287 17.0198 43.2439C16.3729 43.4591 15.6795 43.5699 14.9793 43.5699C14.279 43.5699 13.5856 43.4591 12.9387 43.2439C12.2918 43.0287 11.7041 42.7133 11.2092 42.3156C10.7137 41.9185 10.3207 41.4468 10.0525 40.9277C9.78437 40.4085 9.64634 39.852 9.64634 39.29C9.64634 38.728 9.78437 38.1716 10.0525 37.6524C10.3207 37.1332 10.7137 36.6616 11.2092 36.2644L11.369 36.1361C11.9833 35.6322 12.3953 34.9921 12.552 34.2985C12.7088 33.6049 12.603 32.8895 12.2483 32.2445C11.9105 31.6121 11.3497 31.0728 10.6349 30.6928C9.9201 30.3129 9.08245 30.1091 8.22509 30.1063H7.77215C6.35888 30.1063 5.0035 29.6558 4.00417 28.8538C3.00484 28.0518 2.44342 26.964 2.44342 25.8298C2.44342 24.6956 3.00484 23.6079 4.00417 22.8059C5.0035 22.0039 6.35888 21.5534 7.77215 21.5534H8.01194C8.89383 21.5368 9.74912 21.3077 10.4666 20.8959C11.1841 20.484 11.7306 19.9085 12.0351 19.2441C12.3898 18.5991 12.4956 17.8837 12.3389 17.1901C12.1822 16.4965 11.7701 15.8564 11.1559 15.3525L10.996 15.2242C10.5006 14.827 10.1075 14.3554 9.83938 13.8362C9.57122 13.3171 9.43319 12.7606 9.43319 12.1986C9.43319 11.6366 9.57122 11.0801 9.83938 10.561C10.1075 10.0418 10.5006 9.57015 10.996 9.17298C11.4909 8.77537 12.0786 8.45994 12.7255 8.24473C13.3724 8.02952 14.0658 7.91875 14.7661 7.91875C15.4664 7.91875 16.1598 8.02952 16.8067 8.24473C17.4536 8.45994 18.0413 8.77537 18.5362 9.17298L18.6961 9.30127C19.324 9.79422 20.1215 10.1249 20.9858 10.2507C21.8501 10.3764 22.7416 10.2915 23.5452 10.0069H23.7583C24.5464 9.73584 25.2185 9.28578 25.6919 8.71212C26.1653 8.13845 26.4193 7.46621 26.4227 6.77816V6.41466C26.4227 5.28046 26.9841 4.19273 27.9835 3.39073C28.9828 2.58874 30.3382 2.13818 31.7514 2.13818C33.1647 2.13818 34.5201 2.58874 35.5194 3.39073C36.5188 4.19273 37.0802 5.28046 37.0802 6.41466V6.6071C37.0836 7.29515 37.3376 7.96739 37.811 8.54106C38.2844 9.11473 38.9565 9.56478 39.7445 9.83583C40.5482 10.1205 41.4396 10.2054 42.3039 10.0796C43.1682 9.95383 43.9658 9.62316 44.5937 9.13022L44.7535 9.00192C45.2484 8.60431 45.8361 8.28888 46.483 8.07367C47.1299 7.85846 47.8233 7.74769 48.5236 7.74769C49.2239 7.74769 49.9173 7.85846 50.5642 8.07367C51.2111 8.28888 51.7988 8.60431 52.2937 9.00192C52.7891 9.39909 53.1822 9.87074 53.4504 10.3899C53.7185 10.909 53.8566 11.4655 53.8566 12.0275C53.8566 12.5895 53.7185 13.146 53.4504 13.6652C53.1822 14.1843 52.7891 14.656 52.2937 15.0531L52.1338 15.1814C51.5196 15.6854 51.1076 16.3254 50.9509 17.019C50.7941 17.7127 50.8999 18.4281 51.2546 19.073V19.2441C51.5923 19.8765 52.1531 20.4159 52.868 20.7958C53.5828 21.1757 54.4204 21.3796 55.2778 21.3823H55.7307C57.144 21.3823 58.4994 21.8329 59.4987 22.6349C60.498 23.4369 61.0595 24.5246 61.0595 25.6588C61.0595 26.793 60.498 27.8807 59.4987 28.6827C58.4994 29.4847 57.144 29.9353 55.7307 29.9353H55.4909C54.6336 29.938 53.7959 30.1419 53.0811 30.5218C52.3663 30.9017 51.8055 31.4411 51.4677 32.0735Z" stroke="#1E1E1E" stroke-width="4" stroke-linecap="round" stroke-linejoin="round"/>
</svg>
