<svg width="53" height="37" viewBox="0 0 53 37" fill="none" xmlns="http://www.w3.org/2000/svg">
<path d="M35.2794 34.7613V31.1829C35.2794 29.2849 34.3693 27.4645 32.7492 26.1224C31.1291 24.7802 28.9317 24.0262 26.6406 24.0262H11.5225C9.23132 24.0262 7.03398 24.7802 5.41388 26.1224C3.79377 27.4645 2.88361 29.2849 2.88361 31.1829V34.7613M50.3975 16.8695H37.4392M27.7204 9.71285C27.7204 13.6654 23.8526 16.8695 19.0815 16.8695C14.3104 16.8695 10.4426 13.6654 10.4426 9.71285C10.4426 5.76031 14.3104 2.55615 19.0815 2.55615C23.8526 2.55615 27.7204 5.76031 27.7204 9.71285Z" stroke="#1E1E1E" stroke-width="4" stroke-linecap="round" stroke-linejoin="round"/>
</svg>
